<?xml version="1.0" encoding="UTF-8"?>
<svg width="457px" height="1200px" viewBox="0 0 457 1200" version="1.1" xmlns="http://www.w3.org/2000/svg" xmlns:xlink="http://www.w3.org/1999/xlink">
    <!-- Generator: Sketch 51.3 (57544) - http://www.bohemiancoding.com/sketch -->
    <title>favicon</title>
    <desc>Created with Sketch.</desc>
    <defs></defs>
    <g id="Page-1" stroke="none" stroke-width="1" fill="none" fill-rule="evenodd">
        <g id="favicon" fill="#5D8554" fill-rule="nonzero">
            <path d="M209.766845,817.5003 C209.766845,836.7403 209.766845,855.9803 209.766845,875.2203 C209.766845,901.7503 250.996845,901.7903 250.996845,875.2203 C250.996845,739.8003 250.996845,604.3903 250.996845,468.9703 C250.996845,449.7303 250.996845,430.5003 250.996845,411.2603 C250.996845,384.7303 209.766845,384.6803 209.766845,411.2603 C209.766845,546.6703 209.766845,682.0903 209.766845,817.5003 Z" id="Fill-1"></path>
            <path d="M215.806845,725.1903 C225.516845,725.1903 235.236845,725.1903 244.956845,725.1903 C215.796845,696.0303 186.636845,666.8703 157.476845,637.7103 C138.686845,618.9203 109.526845,648.0703 128.316845,666.8603 C157.476845,696.0303 186.636845,725.1903 215.806845,754.3503 C223.676845,762.2203 237.066845,762.2403 244.956845,754.3503 C274.116845,725.1903 303.276845,696.0303 332.446845,666.8603 C351.226845,648.0803 322.086845,618.9103 303.286845,637.7103 C274.126845,666.8703 244.966845,696.0303 215.806845,725.1903 Z" id="Fill-2"></path>
            <path d="M215.806845,597.6003 C225.516845,597.6003 235.236845,597.6003 244.956845,597.6003 C215.796845,568.4403 186.636845,539.2803 157.476845,510.1203 C138.686845,491.3303 109.526845,520.4803 128.316845,539.2703 C157.476845,568.4303 186.636845,597.6003 215.806845,626.7603 C223.676845,634.6303 237.066845,634.6503 244.956845,626.7603 C274.116845,597.6003 303.276845,568.4303 332.446845,539.2703 C351.226845,520.4803 322.086845,491.3203 303.286845,510.1203 C274.126845,539.2803 244.966845,568.4403 215.806845,597.6003 Z" id="Fill-3"></path>
            <path d="M254.206845,313.3803 C263.126845,307.7803 271.906845,301.9603 280.516845,295.9103 C295.796845,285.1703 310.656845,273.7503 324.866845,261.6303 C351.186845,239.1653 374.856845,213.9143 395.296845,185.9863 C430.886845,137.3793 453.156845,80.1853 456.436845,19.8563 C457.876845,-6.65870003 416.646845,-6.57770003 415.206845,19.8563 C408.776845,137.9193 316.756845,227.6643 221.186845,285.2603 C219.606845,286.2403 217.486845,287.6603 215.396845,289.1203 L254.206845,313.3803 Z" id="Fill-4"></path>
            <path d="M326.946845,939.7503 C312.876845,927.6103 298.136845,916.1803 282.986845,905.4203 C274.436845,899.3503 265.716845,893.5103 256.856845,887.8903 C252.236845,884.9603 247.056845,880.9803 241.566845,878.4303 C238.206845,876.1203 234.876845,873.5703 231.266845,871.7003 C152.446845,823.9903 76.5468446,755.5903 50.3168446,663.4803 C27.8468446,584.5703 50.7668446,503.7903 100.176845,439.9803 C116.536845,418.8503 135.566845,399.6503 155.716845,382.1603 C166.856845,372.4903 178.446845,363.3903 190.446845,354.8203 C186.846845,352.7203 183.716845,350.6303 181.176845,348.9203 C180.146845,348.2203 179.136845,347.5403 178.156845,346.9203 C169.856845,341.6703 161.746845,336.2703 153.956845,330.8303 C149.496845,334.2403 145.066845,337.6903 140.686845,341.2103 C119.346845,358.3903 99.3468446,377.2903 81.4968446,398.0903 C49.3068446,435.5903 23.4368446,478.8303 10.1168446,526.6803 C-15.8131554,619.8603 12.3468446,714.3003 71.0268446,788.7803 C90.1168446,813.0103 112.106845,834.8703 135.886845,854.4903 C149.216845,865.4703 163.016845,875.9203 177.226845,885.7203 C186.306845,891.9903 200.076845,904.0003 212.586845,908.5103 C215.586845,910.6203 218.606845,912.8403 221.836845,914.5103 C316.756845,971.9603 408.776845,1061.6703 415.206845,1179.7403 C416.636845,1206.1303 457.876845,1206.3003 456.436845,1179.7403 C453.166845,1119.5603 430.996845,1062.3503 395.476845,1013.8503 C375.506845,986.5903 352.536845,961.8303 326.946845,939.7503 Z" id="Fill-5"></path>
            <path d="M129.906845,260.1803 C144.026845,272.3303 158.806845,283.7703 174.006845,294.5403 C182.586845,300.6203 191.326845,306.4603 200.206845,312.0803 C204.666845,314.9003 209.616845,318.6703 214.866845,321.1303 C218.096845,323.3303 221.326845,325.5303 224.556845,327.7203 C225.846845,328.6103 227.196845,329.2303 228.556845,329.7203 C228.016845,330.1103 233.646845,333.2603 234.276845,333.6603 C237.456845,335.6303 240.626845,337.6403 243.766845,339.6703 C249.316845,343.2603 254.796845,346.9503 260.226845,350.7203 C270.926845,358.1703 281.366845,365.9603 291.426845,374.2703 C310.966845,390.4003 329.316845,408.0103 345.826845,427.2403 C372.996845,458.8903 394.706845,495.8703 406.166845,536.1203 C428.626845,615.0303 405.706845,695.8103 356.296845,759.6203 C320.676845,805.6203 274.106845,842.0203 224.556845,871.8703 C223.546845,872.5603 221.936845,873.5803 220.366845,874.6403 L261.416845,898.3403 C265.976845,895.1003 270.246845,891.8303 273.816845,889.4203 C287.106845,880.4703 299.976845,870.9303 312.546845,860.9803 C334.136845,843.8803 354.406845,825.0603 372.546845,804.3203 C405.216845,766.9803 431.546845,723.8203 445.486845,675.9703 C472.426845,583.4503 445.746845,488.3403 387.676845,413.6703 C368.816845,389.4303 347.266845,367.4603 323.736845,347.7303 C310.566845,336.6903 296.886845,326.2203 282.816845,316.3603 C271.866845,308.6803 257.366845,295.9403 243.966845,291.1403 C240.936845,289.0103 237.896845,286.7703 234.636845,285.0903 C139.716845,227.6643 47.6968446,137.9193 41.2768446,19.8563 C39.8368446,-6.53470003 -1.4031554,-6.70270003 0.0368446028,19.8563 C3.3168446,80.1443 25.5568446,137.4373 61.1768446,185.9863 C81.2168446,213.2933 104.246845,238.0763 129.906845,260.1803 Z" id="Fill-6"></path>
            <path d="M154.036845,919.8203 C146.276845,925.7903 138.656845,931.9503 131.226845,938.3003 C104.976845,960.7503 81.3768446,985.9703 60.9968446,1013.8503 C25.5168446,1062.4103 3.3168446,1119.5203 0.0368446028,1179.7403 C-1.4031554,1206.2603 39.8368446,1206.1803 41.2768446,1179.7403 C46.6868446,1080.2703 112.846845,1000.9303 190.696845,943.9503 C178.766845,938.2903 168.216845,930.3903 160.136845,924.3203 C157.816845,922.5703 155.636845,920.9303 154.036845,919.8203 Z" id="Fill-7"></path>
        </g>
    </g>
</svg>