<?xml version="1.0" encoding="UTF-8"?>
<svg width="2779px" height="2779px" viewBox="0 0 2779 2779" version="1.1" xmlns="http://www.w3.org/2000/svg" xmlns:xlink="http://www.w3.org/1999/xlink">
    <!-- Generator: Sketch 51.3 (57544) - http://www.bohemiancoding.com/sketch -->
    <title>Kinetic-Foot-Ankle-Logo_Circle</title>
    <desc>Created with Sketch.</desc>
    <defs>
        <polygon id="path-1" points="0 0.66 2778.34 0.66 2778.34 2778.94 0 2778.94"></polygon>
    </defs>
    <g id="Page-1" stroke="none" stroke-width="1" fill="none" fill-rule="evenodd">
        <g id="Kinetic-Foot-Ankle-Logo_Circle">
            <path d="M1370.7,1166.62 C1370.7,1302.03 1370.7,1437.45 1370.7,1572.86 C1370.7,1592.1 1370.7,1611.34 1370.7,1630.58 C1370.7,1657.11 1411.93,1657.15 1411.93,1630.58 C1411.93,1495.16 1411.93,1359.75 1411.93,1224.33 C1411.93,1205.09 1411.93,1185.86 1411.93,1166.62 C1411.93,1140.09 1370.7,1140.04 1370.7,1166.62" id="Fill-1" fill="#5D8554"></path>
            <path d="M1464.22,1393.07 C1435.06,1422.23 1405.9,1451.39 1376.74,1480.55 C1386.45,1480.55 1396.17,1480.55 1405.89,1480.55 C1376.73,1451.39 1347.57,1422.23 1318.41,1393.07 C1299.62,1374.28 1270.46,1403.43 1289.25,1422.22 C1318.41,1451.39 1347.57,1480.55 1376.74,1509.71 C1384.61,1517.58 1398,1517.6 1405.89,1509.71 C1435.05,1480.55 1464.21,1451.39 1493.38,1422.22 C1512.16,1403.44 1483.02,1374.27 1464.22,1393.07" id="Fill-2" fill="#5D8554"></path>
            <path d="M1464.22,1265.48 C1435.06,1294.64 1405.9,1323.8 1376.74,1352.96 C1386.45,1352.96 1396.17,1352.96 1405.89,1352.96 C1376.73,1323.8 1347.57,1294.64 1318.41,1265.48 C1299.62,1246.69 1270.46,1275.84 1289.25,1294.63 C1318.41,1323.79 1347.57,1352.96 1376.74,1382.12 C1384.61,1389.99 1398,1390.01 1405.89,1382.12 C1435.05,1352.96 1464.21,1323.79 1493.38,1294.63 C1512.16,1275.84 1483.02,1246.68 1464.22,1265.48" id="Fill-3" fill="#5D8554"></path>
            <path d="M1376.33,1044.48 L1415.14,1068.74 C1424.06,1063.14 1432.84,1057.32 1441.45,1051.27 C1456.73,1040.53 1471.59,1029.11 1485.8,1016.99 C1512.12,994.525 1535.79,969.274 1556.23,941.346 C1591.82,892.739 1614.09,835.545 1617.37,775.216 C1618.81,748.701 1577.58,748.782 1576.14,775.216 C1569.71,893.279 1477.69,983.024 1382.12,1040.62 C1382.34,1040.56 1382.55,1040.5 1382.77,1040.45 C1380.54,1041.6 1378.42,1043.02 1376.33,1044.48" id="Fill-4" fill="#5D8554"></path>
            <path d="M1556.41,1769.21 C1536.44,1741.95 1513.47,1717.19 1487.88,1695.11 C1473.81,1682.97 1459.07,1671.54 1443.92,1660.78 C1435.37,1654.71 1426.65,1648.87 1417.79,1643.25 C1413.17,1640.32 1407.99,1636.34 1402.5,1633.79 C1399.14,1631.48 1395.81,1628.93 1392.2,1627.06 C1392.42,1627.12 1392.64,1627.18 1392.85,1627.23 C1313.38,1579.35 1237.48,1510.95 1211.25,1418.84 C1188.78,1339.93 1211.7,1259.15 1261.11,1195.34 C1277.47,1174.21 1296.5,1155.01 1316.65,1137.52 C1327.79,1127.85 1339.38,1118.75 1351.38,1110.18 C1347.78,1108.08 1344.65,1105.99 1342.11,1104.28 C1341.08,1103.58 1340.07,1102.9 1339.09,1102.28 C1330.79,1097.03 1322.68,1091.63 1314.89,1086.19 C1310.43,1089.6 1306,1093.05 1301.62,1096.57 C1280.28,1113.75 1260.28,1132.65 1242.43,1153.45 C1210.24,1190.95 1184.37,1234.19 1171.05,1282.04 C1145.12,1375.22 1173.28,1469.66 1231.96,1544.14 C1251.05,1568.37 1273.04,1590.23 1296.82,1609.85 C1310.15,1620.83 1323.95,1631.28 1338.16,1641.08 C1347.24,1647.35 1361.01,1659.36 1373.52,1663.87 C1376.52,1665.98 1379.54,1668.2 1382.77,1669.87 C1382.56,1669.82 1382.34,1669.76 1382.12,1669.7 C1477.69,1727.32 1569.71,1817.03 1576.14,1935.1 C1577.57,1961.49 1618.81,1961.66 1617.37,1935.1 C1614.1,1874.92 1591.93,1817.71 1556.41,1769.21" id="Fill-5" fill="#5D8554"></path>
            <path d="M1222.11,941.346 C1242.15,968.653 1265.18,993.436 1290.84,1015.54 C1304.96,1027.69 1319.74,1039.13 1334.94,1049.9 C1343.52,1055.98 1352.26,1061.82 1361.14,1067.44 C1365.6,1070.26 1370.55,1074.03 1375.8,1076.49 C1379.03,1078.69 1382.26,1080.89 1385.49,1083.08 C1386.78,1083.97 1388.13,1084.59 1389.49,1085.08 C1388.95,1085.47 1394.58,1088.62 1395.21,1089.02 C1398.39,1090.99 1401.56,1093 1404.7,1095.03 C1410.25,1098.62 1415.73,1102.31 1421.16,1106.08 C1431.86,1113.53 1442.3,1121.32 1452.36,1129.63 C1471.9,1145.76 1490.25,1163.37 1506.76,1182.6 C1533.93,1214.25 1555.64,1251.23 1567.1,1291.48 C1589.56,1370.39 1566.64,1451.17 1517.23,1514.98 C1481.61,1560.98 1435.04,1597.38 1385.49,1627.23 C1385.71,1627.18 1385.92,1627.12 1386.14,1627.06 C1384.48,1627.92 1382.87,1628.94 1381.3,1630 L1422.35,1653.7 C1426.91,1650.46 1431.18,1647.19 1434.75,1644.78 C1448.04,1635.83 1460.91,1626.29 1473.48,1616.34 C1495.07,1599.24 1515.34,1580.42 1533.48,1559.68 C1566.15,1522.34 1592.48,1479.18 1606.42,1431.33 C1633.36,1338.81 1606.68,1243.7 1548.61,1169.03 C1529.75,1144.79 1508.2,1122.82 1484.67,1103.09 C1471.5,1092.05 1457.82,1081.58 1443.75,1071.72 C1432.8,1064.04 1418.3,1051.3 1404.9,1046.5 C1401.87,1044.37 1398.83,1042.13 1395.57,1040.45 C1395.79,1040.5 1396,1040.56 1396.22,1040.62 C1300.65,983.024 1208.63,893.279 1202.21,775.216 C1200.77,748.825 1159.53,748.657 1160.97,775.216 C1164.25,835.504 1186.49,892.797 1222.11,941.346" id="Fill-6" fill="#5D8554"></path>
            <path d="M1321.07,1679.68 C1318.75,1677.93 1316.57,1676.29 1314.97,1675.18 C1307.21,1681.15 1299.59,1687.31 1292.16,1693.66 C1265.91,1716.11 1242.31,1741.33 1221.93,1769.21 C1186.45,1817.77 1164.25,1874.88 1160.97,1935.1 C1159.53,1961.62 1200.77,1961.54 1202.21,1935.1 C1207.62,1835.63 1273.78,1756.29 1351.63,1699.31 C1339.7,1693.65 1329.15,1685.75 1321.07,1679.68" id="Fill-7" fill="#5D8554"></path>
            <path d="M364.625,1771.44 L365.189,1771.21 C373.419,1767.96 376.619,1761.12 373.816,1754.02 C370.901,1746.65 362.928,1743.9 353.844,1747.48 L353.281,1747.71 C346.468,1750.4 341.459,1755.99 336.042,1764.69 C346.087,1773.51 356.11,1774.8 364.625,1771.44 Z M262.436,1807.55 L279.653,1768.92 C271.74,1763.85 264.658,1763.37 258.42,1765.83 L257.851,1766.06 C248.203,1769.87 244.875,1779.71 249.363,1791.06 C251.714,1797.02 256.563,1802.65 262.436,1807.55 Z M241.965,1852.05 C223.099,1839.17 209.403,1821.94 200.432,1799.24 C183.505,1756.4 191.262,1716.26 228.151,1701.69 L228.72,1701.46 C252.552,1692.04 277.178,1697.08 301.494,1721.26 C310.787,1707.41 321.358,1699.3 333.561,1694.48 L334.13,1694.26 C364.206,1682.37 399.039,1697.48 414.511,1736.63 C429.646,1774.94 416.933,1807.52 387.426,1819.18 L386.857,1819.4 C364.443,1828.26 341.357,1821.31 321.374,1803.94 L311.125,1828.66 C322.217,1831.82 334.672,1833.46 347.526,1835.27 L344.551,1883.36 C325.186,1880.84 307.915,1877.82 292.41,1873.45 L278.505,1907.16 L230.867,1877.1 L241.965,1852.05 Z" id="Fill-8" fill="#577181"></path>
            <path d="M495.112,2133.33 L522.166,2084.96 L469.928,2103.48 L495.112,2133.33 Z M563.865,2004.26 L609.516,2058.37 L503.15,2265.88 L453.172,2206.64 L467.813,2179.52 L419.607,2122.38 L390.604,2132.48 L341.416,2074.18 L563.865,2004.26 Z" id="Fill-9" fill="#577181"></path>
            <polyline id="Fill-10" fill="#577181" points="683.18 2140.81 737.109 2180.27 742.747 2301.23 798.426 2225.14 855.555 2266.94 729.422 2439.32 678.204 2401.84 672.379 2275.45 614.176 2354.99 557.047 2313.18 683.18 2140.81"></polyline>
            <polyline id="Fill-11" fill="#577181" points="887.972 2284.43 953.702 2312.31 922.493 2385.9 1009.6 2336.01 1086 2368.41 981.254 2424.74 1004.02 2565.63 925.655 2532.4 913.618 2453.72 888.068 2467.08 870.319 2508.93 804.589 2481.06 887.972 2284.43"></polyline>
            <polyline id="Fill-12" fill="#577181" points="1107.77 2371.29 1177.86 2384.88 1148.81 2534.64 1247.36 2553.75 1235.74 2613.66 1067.11 2580.95 1107.77 2371.29"></polyline>
            <polyline id="Fill-13" fill="#577181" points="1305.16 2407.46 1487.3 2404.51 1488.25 2463.08 1376.29 2464.9 1376.64 2486.56 1480.98 2484.87 1481.82 2536.43 1377.47 2538.12 1377.85 2561.31 1491.35 2559.47 1492.3 2618.05 1308.63 2621.03 1305.16 2407.46"></polyline>
            <path d="M1650.84,2488.5 L1650.64,2487.92 C1630.87,2427.29 1663.39,2366.62 1724.02,2346.84 C1768.69,2332.27 1805.95,2344.18 1833.19,2369.64 L1787.9,2420.68 C1775.63,2408.64 1761.58,2401.99 1743.02,2408.04 C1720.1,2415.52 1711.55,2440.45 1719.49,2464.82 L1719.68,2465.4 C1728.3,2491.8 1750.01,2505.25 1772.35,2497.97 C1791.5,2491.72 1798.82,2477.78 1802.32,2459.95 L1868.61,2473.31 C1861.34,2509.06 1840.95,2542.99 1790.48,2559.45 C1734.21,2577.81 1671.37,2551.45 1650.84,2488.5" id="Fill-14" fill="#577181"></path>
            <polyline id="Fill-15" fill="#577181" points="1843.08 2306.77 1904.91 2271.08 1981.19 2403.2 2068.12 2353.01 2098.63 2405.86 1949.86 2491.74 1843.08 2306.77"></polyline>
            <polyline id="Fill-16" fill="#577181" points="2017.89 2198.04 2073.61 2153.4 2207.17 2320.07 2151.45 2364.72 2017.89 2198.04"></polyline>
            <polyline id="Fill-17" fill="#577181" points="2107.95 2129.12 2152.08 2078.95 2273.05 2084.18 2202.27 2021.9 2249.02 1968.75 2409.39 2109.83 2367.47 2157.48 2241.07 2151.95 2315.07 2217.04 2268.31 2270.2 2107.95 2129.12"></polyline>
            <polyline id="Fill-18" fill="#577181" points="2268.7 1931.62 2305.86 1870.65 2488.24 1981.81 2451.09 2042.78 2268.7 1931.62"></polyline>
            <path d="M2427.31,1879.71 L2426.75,1879.48 C2367.52,1855.86 2341.73,1792.03 2365.35,1732.79 C2382.76,1689.15 2415.78,1668.15 2452.77,1663.53 L2462.98,1730.99 C2445.87,1732.71 2431.77,1739.24 2424.53,1757.38 C2415.6,1779.77 2429.28,1802.31 2453.08,1811.8 L2453.65,1812.03 C2479.44,1822.31 2503.69,1814.25 2512.39,1792.42 C2519.85,1773.72 2513.83,1759.16 2502.37,1745.07 L2555.08,1702.69 C2577.89,1731.16 2590.9,1768.55 2571.23,1817.86 C2549.3,1872.84 2488.82,1904.24 2427.31,1879.71" id="Fill-19" fill="#577181"></path>
            <polyline id="Fill-20" fill="#577181" points="255.999 931.927 286.418 867.335 358.735 901.389 312.285 812.405 347.638 737.325 399.833 844.191 541.509 826.933 505.243 903.945 426.156 912.906 438.51 938.954 479.64 958.323 449.22 1022.91 255.999 931.927"></polyline>
            <polyline id="Fill-21" fill="#577181" points="388.731 681.89 430.365 623.897 603.857 748.441 562.222 806.437 388.731 681.89"></polyline>
            <polyline id="Fill-22" fill="#577181" points="482.083 554.377 530.547 508.374 650.554 524.451 585.646 456.072 636.987 407.34 784.027 562.244 737.995 605.936 612.613 589.073 680.459 660.55 629.122 709.282 482.083 554.377"></polyline>
            <polyline id="Fill-23" fill="#577181" points="714.083 352.581 872.214 262.16 901.292 313.016 804.085 368.601 814.839 387.406 905.426 335.608 931.019 380.372 840.431 432.17 851.942 452.301 950.475 395.958 979.558 446.814 820.105 537.991 714.083 352.581"></polyline>
            <polyline id="Fill-24" fill="#577181" points="1023.25 269.483 963.086 287.67 945.606 229.846 1134.27 172.808 1151.75 230.635 1091.59 248.824 1135.91 395.434 1067.57 416.094 1023.25 269.483"></polyline>
            <polyline id="Fill-25" fill="#577181" points="1209.68 162.656 1280.57 154.195 1305.88 366.266 1234.99 374.724 1209.68 162.656"></polyline>
            <path d="M1353.78,253.09 L1353.82,252.48 C1357.67,188.831 1410.2,144.329 1473.85,148.187 C1520.75,151.027 1551.04,175.788 1567.03,209.463 L1506.17,240.318 C1499.17,224.609 1488.55,213.267 1469.06,212.086 C1445,210.628 1427.89,230.683 1426.34,256.265 L1426.3,256.875 C1424.62,284.588 1439.89,305.075 1463.34,306.498 C1483.44,307.714 1495.37,297.433 1505.16,282.132 L1561.93,318.889 C1542.04,349.475 1510.62,373.554 1457.64,370.341 C1398.55,366.762 1349.78,319.179 1353.78,253.09" id="Fill-26" fill="#577181"></path>
            <polyline id="Fill-27" fill="#577181" points="1772.59 208.991 1937.69 277.641 1914.26 333.986 1815.09 292.752 1804.66 317.826 1896.79 356.133 1875.47 407.409 1783.34 369.101 1756.51 433.62 1690.59 406.207 1772.59 208.991"></polyline>
            <path d="M2076.57,497.906 L2076.93,497.414 C2091.98,477.042 2091.58,448.303 2069.49,431.993 C2047.64,415.863 2020.48,423.876 2005.62,444.003 L2005.26,444.494 C1990.22,464.866 1990.62,493.605 2012.71,509.918 C2034.55,526.049 2061.71,518.033 2076.57,497.906 Z M1946.97,402.213 L1947.34,401.721 C1984.13,351.894 2054.48,342.399 2107.5,381.546 C2160.51,420.692 2172.01,489.871 2135.22,539.696 L2134.86,540.187 C2098.07,590.014 2027.72,599.512 1974.7,560.363 C1921.68,521.217 1910.18,452.04 1946.97,402.213 Z" id="Fill-28" fill="#577181"></path>
            <path d="M2278.19,709.324 L2278.67,708.946 C2298.53,693.232 2305.69,665.392 2288.64,643.855 C2271.79,622.56 2243.48,623.169 2223.86,638.696 L2223.38,639.074 C2203.52,654.789 2196.37,682.628 2213.41,704.162 C2230.26,725.46 2258.57,724.848 2278.19,709.324 Z M2178.23,582.982 L2178.7,582.6 C2227.28,544.168 2297.66,553.456 2338.56,605.141 C2379.45,656.829 2372.41,726.604 2323.83,765.039 L2323.35,765.417 C2274.78,803.852 2204.39,794.562 2163.5,742.877 C2122.6,691.192 2129.65,621.414 2178.23,582.982 Z" id="Fill-29" fill="#577181"></path>
            <g id="Group-33">
                <mask id="mask-2" fill="white">
                    <use xlink:href="#path-1"></use>
                </mask>
                <g id="Clip-31"></g>
                <polyline id="Fill-30" fill="#577181" mask="url(#mask-2)" points="2414.41 843.887 2388.09 786.809 2442.95 761.512 2525.48 940.506 2470.62 965.801 2444.3 908.723 2305.21 972.858 2275.31 908.022 2414.41 843.887"></polyline>
                <path d="M1389.17,41.892 C1207.19,41.892 1030.67,77.528 864.5,147.811 C703.99,215.702 559.833,312.895 436.035,436.695 C312.236,560.493 215.041,704.65 147.152,865.159 C76.867,1031.33 41.232,1207.85 41.232,1389.83 C41.232,1571.81 76.867,1748.34 147.152,1914.5 C215.041,2075.01 312.236,2219.17 436.035,2342.97 C559.833,2466.77 703.99,2563.96 864.5,2631.85 C1030.67,2702.13 1207.19,2737.77 1389.17,2737.77 C1571.15,2737.77 1747.68,2702.13 1913.84,2631.85 C2074.35,2563.96 2218.51,2466.77 2342.31,2342.97 C2466.11,2219.17 2563.3,2075.01 2631.19,1914.5 C2701.47,1748.34 2737.11,1571.81 2737.11,1389.83 C2737.11,1207.85 2701.47,1031.33 2631.19,865.159 C2563.3,704.65 2466.11,560.493 2342.31,436.695 C2218.51,312.895 2074.35,215.702 1913.84,147.811 C1747.68,77.528 1571.15,41.892 1389.17,41.892 Z M1389.17,2779 C1201.64,2779 1019.72,2742.27 848.439,2669.83 C683.014,2599.86 534.452,2499.7 406.88,2372.12 C279.307,2244.55 179.145,2095.99 109.176,1930.57 C36.733,1759.29 0,1577.36 0,1389.83 C0,1202.3 36.733,1020.37 109.176,849.097 C179.145,683.673 279.307,535.111 406.88,407.538 C534.452,279.966 683.014,179.805 848.439,109.837 C1019.72,37.392 1201.64,0.66 1389.17,0.66 C1576.7,0.66 1758.63,37.392 1929.91,109.837 C2095.33,179.805 2243.89,279.966 2371.46,407.538 C2499.04,535.111 2599.2,683.673 2669.17,849.097 C2741.61,1020.37 2778.34,1202.3 2778.34,1389.83 C2778.34,1577.36 2741.61,1759.29 2669.17,1930.57 C2599.2,2095.99 2499.04,2244.55 2371.46,2372.12 C2243.89,2499.7 2095.33,2599.86 1929.91,2669.83 C1758.63,2742.27 1576.7,2779 1389.17,2779 Z" id="Fill-32" fill="#577181" mask="url(#mask-2)"></path>
            </g>
            <path d="M482.813,1392.68 C479.559,1392.68 477.052,1390.17 477.052,1386.92 L477.052,1334.12 C477.052,1330.78 479.559,1328.36 482.813,1328.36 L516.18,1328.36 C524.732,1328.36 524.544,1340.45 516.18,1340.45 L489.411,1340.45 L489.411,1354.39 L512.835,1354.39 C521.108,1354.39 521.108,1366.56 512.835,1366.56 L489.411,1366.56 L489.411,1380.5 L517.763,1380.5 C526.219,1380.5 526.869,1392.68 517.763,1392.68 L482.813,1392.68" id="Fill-34" fill="#577181"></path>
            <path d="M551.764,1342.3 C553.901,1324.27 581.136,1321.02 593.963,1330.87 C600.281,1335.98 593.587,1344.07 588.014,1339.98 C581.136,1335.61 565.519,1333.57 563.57,1343.23 C561.057,1358.48 601.489,1349.74 600.839,1374.46 C600.19,1398.07 565.985,1398.63 553.16,1388.03 C550.089,1385.52 550.185,1381.43 551.855,1378.92 C554.271,1376.51 556.966,1375.67 560.129,1378.27 C567.752,1383.48 587.364,1387.38 588.755,1374.19 C587.547,1360.43 548.881,1368.7 551.764,1342.3" id="Fill-35" fill="#577181"></path>
            <path d="M647.575,1339.98 L631.307,1339.98 C623.222,1339.98 623.222,1328.08 631.307,1328.08 L675.272,1328.08 C683.546,1328.08 683.546,1339.98 675.272,1339.98 L659.842,1339.98 L659.842,1386.92 C659.842,1395.01 647.575,1395.19 647.575,1386.92 L647.575,1339.98" id="Fill-36" fill="#577181"></path>
            <path d="M721.17,1339.7 L721.17,1381.34 L736.6,1381.34 C761.698,1381.34 762.81,1339.7 736.6,1339.7 L721.17,1339.7 Z M715.318,1392.68 C712.247,1392.68 708.902,1391.01 708.902,1386.92 L708.902,1334.12 C708.902,1330.78 712.247,1328.36 715.318,1328.36 L736.6,1328.36 C779.077,1328.36 778.149,1392.68 737.437,1392.68 L715.318,1392.68 Z" id="Fill-37" fill="#577181"></path>
            <path d="M1971.83,1360.06 C1980.38,1353.37 1980.29,1339.98 1967.74,1339.98 C1963.74,1339.98 1959.56,1342.4 1957.15,1346.21 C1953.43,1352.06 1943.67,1348.16 1947.38,1339.79 C1951.57,1331.61 1959.65,1328.36 1967.74,1328.36 C1989.77,1328.36 1998.51,1351.04 1980.85,1368.24 C1974.06,1374 1969.41,1377.34 1962.81,1381.25 C1966.9,1381.25 1971.83,1380.69 1975.92,1380.69 L1986.7,1380.69 C1993.86,1380.69 1994.79,1392.68 1986.7,1392.68 L1950.64,1392.68 C1944.88,1392.68 1942.55,1387.11 1946.55,1382.92 C1954.92,1374 1962.81,1368.24 1971.83,1360.06" id="Fill-38" fill="#577181"></path>
            <path d="M2047.38,1381.53 C2066.99,1381.53 2066.72,1338.96 2047.47,1338.96 C2026,1338.96 2025.73,1381.53 2047.38,1381.53 Z M2047.47,1393.7 C2009.18,1393.7 2009.74,1326.41 2047.38,1326.41 C2082.89,1326.41 2083.35,1393.7 2047.47,1393.7 Z" id="Fill-39" fill="#577181"></path>
            <path d="M2113.07,1343.14 L2107.5,1345.37 C2100.07,1347.79 2095.6,1336.82 2104.06,1334.03 L2117.17,1329.2 C2121.44,1327.34 2125.35,1329.11 2125.35,1335.7 L2125.35,1387.76 C2125.35,1394.63 2113.07,1394.82 2113.07,1387.76 L2113.07,1343.14" id="Fill-40" fill="#577181"></path>
            <path d="M2191.14,1345.47 C2191.14,1334.96 2168.46,1335.05 2168.46,1345.47 C2168.46,1355.97 2191.14,1356.06 2191.14,1345.47 Z M2193.55,1373.91 C2193.55,1361.45 2166.04,1361.82 2166.04,1373.91 C2166.04,1386.08 2193.55,1386.83 2193.55,1373.91 Z M2153.96,1373.81 C2153.96,1367.21 2158.24,1362.19 2163.07,1359.31 C2158.98,1356.15 2156.47,1351.04 2156.47,1346.21 C2156.47,1320.65 2203.13,1318.97 2203.13,1346.21 C2203.13,1351.04 2200.71,1356.15 2196.44,1359.31 C2201.83,1362.1 2205.73,1367.31 2205.73,1373.91 C2205.73,1388.68 2193.18,1394.35 2180.36,1394.35 C2166.41,1394.35 2153.96,1388.59 2153.96,1373.81 Z" id="Fill-41" fill="#577181"></path>
        </g>
    </g>
</svg>