<?xml version="1.0" encoding="UTF-8"?>
<svg width="2717px" height="654px" viewBox="0 0 2717 654" version="1.1" xmlns="http://www.w3.org/2000/svg" xmlns:xlink="http://www.w3.org/1999/xlink">
    <!-- Generator: Sketch 51.3 (57544) - http://www.bohemiancoding.com/sketch -->
    <title>Kinetic-Foot-Ankle-Logo</title>
    <desc>Created with Sketch.</desc>
    <defs>
        <polygon id="path-1" points="0 0.436 2714.73 0.436 2714.73 653.94 0 653.94"></polygon>
    </defs>
    <g id="Page-1" stroke="none" stroke-width="1" fill="none" fill-rule="evenodd">
        <g id="Kinetic-Foot-Ankle-Logo">
            <path d="M384.408,533.96 C384.408,522.497 402.863,522.078 402.863,533.96 L402.863,613.788 C402.863,625.392 384.408,625.671 384.408,613.788 L384.408,533.96" id="Fill-1" fill="#5D8554"></path>
            <path d="M505.751,543.048 L481.285,543.048 C469.119,543.048 469.119,525.153 481.285,525.153 L547.412,525.153 C559.852,525.153 559.852,543.048 547.412,543.048 L524.205,543.048 L524.205,613.649 C524.205,625.813 505.751,626.09 505.751,613.649 L505.751,543.048" id="Fill-2" fill="#5D8554"></path>
            <path d="M623.453,531.304 C623.453,522.636 639.39,522.777 639.39,531.304 L639.39,555.351 C639.39,564.437 623.453,564.997 623.453,555.351 L623.453,531.304" id="Fill-3" fill="#5D8554"></path>
            <path d="M709.006,546.543 C712.221,519.422 753.185,514.528 772.477,529.346 C781.986,537.037 771.917,549.199 763.532,543.048 C753.185,536.477 729.699,533.402 726.762,547.942 C722.989,570.869 783.801,557.727 782.824,594.915 C781.844,630.424 730.398,631.264 711.105,615.327 C706.492,611.552 706.631,605.4 709.148,601.627 C712.781,597.991 716.835,596.733 721.588,600.648 C733.054,608.476 762.551,614.348 764.648,594.496 C762.833,573.805 704.674,586.247 709.006,546.543" id="Fill-4" fill="#5D8554"></path>
            <path d="M952.528,533.96 C952.528,522.497 970.983,522.078 970.983,533.96 L970.983,613.788 C970.983,625.392 952.528,625.671 952.528,613.788 L952.528,533.96" id="Fill-5" fill="#5D8554"></path>
            <path d="M1047.73,535.359 C1047.73,530.325 1048.85,525.433 1056.12,525.433 C1061.15,525.433 1062.27,526.69 1066.04,530.325 L1112.32,588.204 L1112.32,533.96 C1112.32,529.346 1116.37,524.314 1121.12,524.314 C1126.16,524.314 1131.05,529.346 1131.05,533.96 L1131.05,612.67 C1131.05,618.821 1127.27,621.199 1123.64,622.316 C1118.74,622.316 1116.37,621.199 1112.32,617.423 L1066.04,558.706 L1066.04,612.67 C1066.04,618.821 1062.27,622.316 1057.23,622.316 C1052.2,622.316 1047.73,618.821 1047.73,612.67 L1047.73,535.359" id="Fill-6" fill="#5D8554"></path>
            <path d="M1350.8,540.251 C1335.15,540.251 1318.09,551.297 1318.09,573.385 C1318.09,595.335 1335.15,606.518 1350.8,606.518 C1366.88,606.518 1384.08,595.335 1384.08,573.385 C1384.08,551.297 1366.88,540.251 1350.8,540.251 Z M1352.34,623.714 C1326.48,624.834 1299.63,607.638 1299.63,573.385 C1299.63,538.994 1326.48,522.078 1352.34,522.078 C1376.81,523.335 1402.39,540.251 1402.39,573.385 C1402.39,606.518 1376.81,623.714 1352.34,623.714 Z" id="Fill-7" fill="#5D8554"></path>
            <path d="M1541.2,534.8 C1541.2,522.357 1559.52,521.378 1559.52,534.8 L1559.52,585.409 C1559.52,637.694 1475.21,637.694 1475.21,585.409 L1475.21,534.8 C1475.21,522.217 1493.53,521.658 1493.53,534.8 L1493.53,585.409 C1493.53,612.95 1541.2,614.628 1541.2,585.409 L1541.2,534.8" id="Fill-8" fill="#5D8554"></path>
            <path d="M1653.45,571.848 L1680.44,571.848 C1698.61,571.848 1699.73,542.488 1680.44,542.488 L1653.45,542.488 L1653.45,571.848 Z M1653.45,613.23 C1653.45,625.392 1634.86,625.813 1634.86,613.508 L1634.86,534.101 C1634.86,529.207 1638.64,525.572 1643.25,525.572 L1680.44,525.572 C1715.95,525.572 1723.21,573.107 1693.58,584.988 L1712.17,607.638 C1719.44,618.402 1704.9,628.747 1696.51,618.122 L1675.4,587.924 L1653.45,587.924 L1653.45,613.23 Z" id="Fill-9" fill="#5D8554"></path>
            <path d="M1882.16,535.359 C1882.16,530.325 1883.27,525.433 1890.54,525.433 C1895.58,525.433 1896.7,526.69 1900.47,530.325 L1946.74,588.204 L1946.74,533.96 C1946.74,529.346 1950.8,524.314 1955.55,524.314 C1960.58,524.314 1965.48,529.346 1965.48,533.96 L1965.48,612.67 C1965.48,618.821 1961.7,621.199 1958.07,622.316 C1953.17,622.316 1950.8,621.199 1946.74,617.423 L1900.47,558.706 L1900.47,612.67 C1900.47,618.821 1896.7,622.316 1891.66,622.316 C1886.63,622.316 1882.16,618.821 1882.16,612.67 L1882.16,535.359" id="Fill-10" fill="#5D8554"></path>
            <path d="M2098.98,586.807 L2083.18,552.275 L2065.99,586.807 L2098.98,586.807 Z M2038.86,622.316 C2034.39,619.799 2031.59,614.767 2034.39,608.896 L2074.51,530.466 C2078.29,523.055 2088.35,522.777 2091.85,530.466 L2131.27,608.896 C2137,619.799 2120.09,628.469 2115.06,617.564 L2108.91,605.261 L2057.32,605.261 L2051.31,617.564 C2049.07,622.316 2043.9,623.295 2038.86,622.316 Z" id="Fill-11" fill="#5D8554"></path>
            <path d="M2215.29,543.048 L2190.82,543.048 C2178.66,543.048 2178.66,525.153 2190.82,525.153 L2256.95,525.153 C2269.39,525.153 2269.39,543.048 2256.95,543.048 L2233.74,543.048 L2233.74,613.649 C2233.74,625.813 2215.29,626.09 2215.29,613.649 L2215.29,543.048" id="Fill-12" fill="#5D8554"></path>
            <path d="M2401.35,534.8 C2401.35,522.357 2419.67,521.378 2419.67,534.8 L2419.67,585.409 C2419.67,637.694 2335.37,637.694 2335.37,585.409 L2335.37,534.8 C2335.37,522.217 2353.68,521.658 2353.68,534.8 L2353.68,585.409 C2353.68,612.95 2401.35,614.628 2401.35,585.409 L2401.35,534.8" id="Fill-13" fill="#5D8554"></path>
            <g id="Group-17" transform="translate(2495.000000, 525.000000)" fill="#5D8554">
                <path d="M18.61,46.848 L45.59,46.848 C63.76,46.848 64.88,17.488 45.59,17.488 L18.61,17.488 L18.61,46.848 Z M18.61,88.23 C18.61,100.392 0.01,100.813 0.01,88.508 L0.01,9.101 C0.01,4.207 3.79,0.572 8.4,0.572 L45.59,0.572 C81.1,0.572 88.37,48.107 58.73,59.988 L77.32,82.638 C84.59,93.402 70.05,103.747 61.67,93.122 L40.56,62.924 L18.61,62.924 L18.61,88.23 Z" id="Fill-14"></path>
                <path d="M158.96,97.316 C154.07,97.316 150.29,93.543 150.29,88.649 L150.29,9.24 C150.29,4.207 154.07,0.572 158.96,0.572 L209.15,0.572 C222.01,0.572 221.73,18.747 209.15,18.747 L168.88,18.747 L168.88,39.717 L204.12,39.717 C216.56,39.717 216.56,58.031 204.12,58.031 L168.88,58.031 L168.88,79.003 L211.53,79.003 C224.25,79.003 225.22,97.316 211.53,97.316 L158.96,97.316" id="Fill-16"></path>
            </g>
            <polyline id="Fill-18" fill="#577181" points="385.788 35.117 439.55 35.117 439.55 95.309 485.268 35.117 547.757 35.117 491.7 104.959 548.906 195.935 484.808 195.935 453.333 144.933 439.55 161.705 439.55 195.935 385.788 195.935 385.788 35.117"></polyline>
            <polygon id="Fill-19" fill="#577181" points="562.431 195.935 616.193 195.935 616.193 35.117 562.431 35.117"></polygon>
            <polyline id="Fill-20" fill="#577181" points="635.028 35.117 685.342 35.117 742.548 106.107 742.548 35.117 795.85 35.117 795.85 195.935 748.063 195.935 688.33 121.728 688.33 195.935 635.028 195.935 635.028 35.117"></polyline>
            <polyline id="Fill-21" fill="#577181" points="814.229 35.117 951.384 35.117 951.384 79.228 867.071 79.228 867.071 95.539 945.643 95.539 945.643 134.365 867.071 134.365 867.071 151.825 952.535 151.825 952.535 195.935 814.229 195.935 814.229 35.117"></polyline>
            <polyline id="Fill-22" fill="#577181" points="1013.22 80.605 965.886 80.605 965.886 35.117 1114.3 35.117 1114.3 80.605 1066.97 80.605 1066.97 195.935 1013.22 195.935 1013.22 80.605"></polyline>
            <polygon id="Fill-23" fill="#577181" points="1130.33 195.935 1184.08 195.935 1184.08 35.117 1130.33 35.117"></polygon>
            <path d="M1199.25,115.986 L1199.25,115.526 C1199.25,67.51 1236.69,31.669 1284.71,31.669 C1320.09,31.669 1343.98,48.901 1357.54,73.484 L1313.2,99.443 C1307.22,87.958 1298.72,79.916 1284.02,79.916 C1265.87,79.916 1253.93,95.767 1253.93,115.066 L1253.93,115.526 C1253.93,136.432 1266.33,151.135 1284.02,151.135 C1299.18,151.135 1307.68,142.865 1314.35,130.918 L1358.69,155.961 C1345.13,179.854 1322.62,199.381 1282.64,199.381 C1238.07,199.381 1199.25,165.838 1199.25,115.986" id="Fill-24" fill="#577181"></path>
            <polyline id="Fill-25" fill="#577181" points="1461.26 35.117 1595.89 35.117 1595.89 81.064 1515.02 81.064 1515.02 101.511 1590.15 101.511 1590.15 143.325 1515.02 143.325 1515.02 195.935 1461.26 195.935 1461.26 35.117"></polyline>
            <path d="M1726.15,115.986 L1726.15,115.526 C1726.15,96.457 1713.06,79.228 1692.38,79.228 C1671.94,79.228 1659.07,96.227 1659.07,115.066 L1659.07,115.526 C1659.07,134.594 1672.16,151.825 1692.84,151.825 C1713.29,151.825 1726.15,134.824 1726.15,115.986 Z M1604.85,115.986 L1604.85,115.526 C1604.85,68.888 1643.22,31.669 1692.84,31.669 C1742.46,31.669 1780.37,68.428 1780.37,115.066 L1780.37,115.526 C1780.37,162.163 1742,199.381 1692.38,199.381 C1642.76,199.381 1604.85,162.623 1604.85,115.986 Z" id="Fill-26" fill="#577181"></path>
            <path d="M1912.71,115.986 L1912.71,115.526 C1912.71,96.457 1899.61,79.228 1878.93,79.228 C1858.49,79.228 1845.62,96.227 1845.62,115.066 L1845.62,115.526 C1845.62,134.594 1858.72,151.825 1879.39,151.825 C1899.84,151.825 1912.71,134.824 1912.71,115.986 Z M1791.4,115.986 L1791.4,115.526 C1791.4,68.888 1829.77,31.669 1879.39,31.669 C1929.02,31.669 1966.92,68.428 1966.92,115.066 L1966.92,115.526 C1966.92,162.163 1928.56,199.381 1878.93,199.381 C1829.31,199.381 1791.4,162.623 1791.4,115.986 Z" id="Fill-27" fill="#577181"></path>
            <polyline id="Fill-28" fill="#577181" points="2015.86 80.605 1968.54 80.605 1968.54 35.117 2116.95 35.117 2116.95 80.605 2069.62 80.605 2069.62 195.935 2015.86 195.935 2015.86 80.605"></polyline>
            <path d="M491.21,378.444 L476.507,339.39 L461.803,378.444 L491.21,378.444 Z M450.316,276.211 L503.617,276.211 L571.39,438.178 L513.034,438.178 L504.534,416.583 L448.248,416.583 L439.976,438.178 L382.542,438.178 L450.316,276.211 Z" id="Fill-29" fill="#577181"></path>
            <polyline id="Fill-30" fill="#577181" points="578.051 277.36 628.365 277.36 685.571 348.35 685.571 277.36 738.872 277.36 738.872 438.178 691.086 438.178 631.352 363.971 631.352 438.178 578.051 438.178 578.051 277.36"></polyline>
            <path d="M819.973,391.312 C844.555,391.312 860.407,381.202 860.407,357.999 L860.407,357.539 C860.407,334.334 844.555,324.227 819.973,324.227 L811.013,324.227 L811.013,391.312 L819.973,391.312 Z M757.251,277.36 L818.825,277.36 C882.691,277.36 914.625,308.833 914.625,356.389 L914.625,356.849 C914.625,404.405 882.002,438.178 816.985,438.178 L757.251,438.178 L757.251,277.36 Z" id="Fill-31" fill="#577181"></path>
            <path d="M1101.57,378.444 L1086.87,339.39 L1072.17,378.444 L1101.57,378.444 Z M1060.68,276.211 L1113.98,276.211 L1181.76,438.178 L1123.4,438.178 L1114.9,416.583 L1058.61,416.583 L1050.34,438.178 L992.907,438.178 L1060.68,276.211 Z" id="Fill-32" fill="#577181"></path>
            <polyline id="Fill-33" fill="#577181" points="1188.42 277.36 1238.73 277.36 1295.94 348.35 1295.94 277.36 1349.24 277.36 1349.24 438.178 1301.45 438.178 1241.72 363.971 1241.72 438.178 1188.42 438.178 1188.42 277.36"></polyline>
            <polyline id="Fill-34" fill="#577181" points="1365.92 277.36 1419.68 277.36 1419.68 337.552 1465.4 277.36 1527.89 277.36 1471.83 347.201 1529.04 438.178 1464.94 438.178 1433.47 387.176 1419.68 403.947 1419.68 438.178 1365.92 438.178 1365.92 277.36"></polyline>
            <polyline id="Fill-35" fill="#577181" points="1542.11 277.36 1595.87 277.36 1595.87 392.23 1671.45 392.23 1671.45 438.178 1542.11 438.178 1542.11 277.36"></polyline>
            <polyline id="Fill-36" fill="#577181" points="1686.56 277.36 1823.71 277.36 1823.71 321.47 1739.4 321.47 1739.4 337.782 1817.97 337.782 1817.97 376.608 1739.4 376.608 1739.4 394.068 1824.86 394.068 1824.86 438.178 1686.56 438.178 1686.56 277.36"></polyline>
            <path d="M1917.73,358.229 L1917.73,357.769 C1917.73,309.753 1955.18,273.913 2003.2,273.913 C2038.58,273.913 2062.47,291.144 2076.02,315.727 L2031.68,341.686 C2025.71,330.2 2017.21,322.159 2002.5,322.159 C1984.36,322.159 1972.41,338.01 1972.41,357.309 L1972.41,357.769 C1972.41,378.674 1984.82,393.378 2002.5,393.378 C2017.67,393.378 2026.17,385.108 2032.83,373.161 L2077.17,398.204 C2063.62,422.097 2041.1,441.624 2001.13,441.624 C1956.56,441.624 1917.73,408.082 1917.73,358.229" id="Fill-37" fill="#577181"></path>
            <polyline id="Fill-38" fill="#577181" points="2087.51 277.36 2141.27 277.36 2141.27 392.23 2216.86 392.23 2216.86 438.178 2087.51 438.178 2087.51 277.36"></polyline>
            <polygon id="Fill-39" fill="#577181" points="2234.11 438.178 2287.87 438.178 2287.87 277.36 2234.11 277.36"></polygon>
            <polyline id="Fill-40" fill="#577181" points="2306.71 277.36 2357.02 277.36 2414.23 348.35 2414.23 277.36 2467.53 277.36 2467.53 438.178 2419.75 438.178 2360.01 363.971 2360.01 438.178 2306.71 438.178 2306.71 277.36"></polyline>
            <polygon id="Fill-41" fill="#577181" points="2486.37 438.178 2540.13 438.178 2540.13 277.36 2486.37 277.36"></polygon>
            <g id="Group-46">
                <mask id="mask-2" fill="white">
                    <use xlink:href="#path-1"></use>
                </mask>
                <g id="Clip-43"></g>
                <path d="M2555.29,358.229 L2555.29,357.769 C2555.29,309.753 2592.74,273.913 2640.76,273.913 C2676.14,273.913 2700.03,291.144 2713.59,315.727 L2669.24,341.686 C2663.27,330.2 2654.77,322.159 2640.07,322.159 C2621.92,322.159 2609.97,338.01 2609.97,357.309 L2609.97,357.769 C2609.97,378.674 2622.38,393.378 2640.07,393.378 C2655.23,393.378 2663.73,385.108 2670.39,373.161 L2714.73,398.204 C2701.18,422.097 2678.66,441.624 2638.69,441.624 C2594.12,441.624 2555.29,408.082 2555.29,358.229" id="Fill-42" fill="#577181" mask="url(#mask-2)"></path>
                <path d="M248.673,643.182 C246.889,610.392 234.814,579.225 215.461,552.802 C204.581,537.948 192.065,524.461 178.126,512.431 C170.461,505.815 162.427,499.59 154.173,493.727 C151.28,491.672 148.34,489.684 145.38,487.725 C146.744,486.727 148.032,485.783 149.178,485.011 C156.42,480.132 163.433,474.936 170.279,469.514 C182.041,460.198 193.083,449.943 202.969,438.644 C220.766,418.302 235.114,394.786 242.707,368.715 C257.387,318.313 242.851,266.492 211.21,225.814 C200.934,212.604 189.195,200.637 176.373,189.887 C169.202,183.873 161.747,178.168 154.084,172.794 C151.562,171.024 148.691,168.763 145.667,166.544 C148.076,164.944 150.465,163.315 152.831,161.653 C161.156,155.805 169.25,149.581 176.991,142.976 C191.332,130.738 204.226,116.98 215.365,101.765 C234.751,75.283 246.884,44.122 248.673,11.254 C249.459,-3.192 226.993,-3.148 226.209,11.254 C222.795,73.993 175.014,122.045 124.347,153.494 C73.68,122.045 25.898,73.993 22.484,11.254 C21.702,-3.125 -0.767,-3.216 0.02,11.254 C1.807,44.1 13.922,75.314 33.328,101.765 C44.244,116.643 56.795,130.145 70.776,142.186 C78.465,148.807 86.52,155.04 94.799,160.906 C99.472,164.218 104.238,167.4 109.076,170.464 C111.505,172.003 114.202,174.051 117.063,175.394 C118.822,176.592 120.581,177.789 122.34,178.986 C123.046,179.466 123.779,179.806 124.521,180.076 C124.224,180.288 127.293,182.004 127.637,182.218 C129.369,183.296 131.094,184.387 132.806,185.495 C135.828,187.452 138.818,189.459 141.774,191.514 C147.607,195.572 153.294,199.82 158.775,204.344 C169.42,213.131 179.415,222.728 188.41,233.205 C203.211,250.448 215.039,270.598 221.283,292.524 C233.524,335.515 221.035,379.525 194.116,414.292 C178.207,434.838 158.282,451.864 136.745,466.296 C136.745,446.907 136.745,427.519 136.745,408.129 C151.536,393.338 166.328,378.547 181.119,363.756 C191.355,353.521 175.475,337.632 165.235,347.872 C155.739,357.368 146.242,366.864 136.745,376.36 C136.745,363.778 136.745,351.197 136.745,338.615 C151.536,323.824 166.328,309.033 181.119,294.241 C191.355,284.006 175.475,268.117 165.235,278.357 C155.739,287.854 146.242,297.35 136.745,306.846 C136.745,289.877 136.745,272.909 136.745,255.94 C136.745,245.46 136.745,234.979 136.745,224.497 C136.745,210.043 114.282,210.019 114.282,224.497 C114.282,251.947 114.282,279.397 114.282,306.846 C104.785,297.35 95.289,287.854 85.793,278.357 C75.557,268.122 59.668,284.002 69.908,294.241 C84.699,309.033 99.49,323.824 114.282,338.615 C114.282,351.197 114.282,363.778 114.282,376.36 C104.785,366.864 95.289,357.368 85.793,347.872 C75.557,337.636 59.668,353.516 69.908,363.756 C84.699,378.547 99.49,393.338 114.282,408.129 C114.282,420.695 114.282,433.262 114.282,445.828 C114.282,453.164 114.282,460.502 114.282,467.838 C75.559,442.28 40.365,407.406 27.411,361.912 C15.169,318.921 27.658,274.91 54.578,240.144 C63.49,228.632 73.855,218.175 84.838,208.643 C90.907,203.376 97.218,198.418 103.756,193.746 C101.793,192.606 100.089,191.464 98.709,190.536 C98.143,190.156 97.594,189.783 97.061,189.445 C92.54,186.582 88.123,183.64 83.878,180.679 C81.446,182.536 79.031,184.414 76.648,186.332 C65.022,195.693 54.126,205.989 44.399,217.321 C26.861,237.752 12.767,261.313 5.512,287.383 C-8.616,338.148 6.726,389.599 38.693,430.176 C49.095,443.379 61.074,455.288 74.033,465.976 C81.292,471.962 88.812,477.651 96.554,482.995 C101.504,486.411 109.004,492.951 115.818,495.408 C117.455,496.56 119.098,497.766 120.862,498.679 C120.743,498.648 120.624,498.616 120.506,498.584 C172.57,529.976 222.71,578.851 226.209,643.182 C226.991,657.56 249.46,657.652 248.673,643.182" id="Fill-44" fill="#5D8554" mask="url(#mask-2)"></path>
                <path d="M83.92,501.571 C79.692,504.826 75.54,508.178 71.491,511.641 C57.192,523.868 44.335,537.61 33.232,552.802 C13.9,579.256 1.805,610.37 0.02,643.182 C-0.766,657.628 21.701,657.584 22.484,643.182 C25.432,588.987 61.481,545.763 103.895,514.719 C97.396,511.632 91.647,507.333 87.246,504.024 C85.979,503.071 84.79,502.178 83.92,501.571" id="Fill-45" fill="#5D8554" mask="url(#mask-2)"></path>
            </g>
        </g>
    </g>
</svg>